<svg xmlns="http://www.w3.org/2000/svg" version="1.1" xmlns:xlink="http://www.w3.org/1999/xlink" xmlns:svgjs="http://svgjs.dev/svgjs" width="1500" height="446" viewBox="0 0 1500 446"><g transform="matrix(1,0,0,1,-0.9090909090909918,-1.7974037863437786)"><svg viewBox="0 0 396 118" data-background-color="#ffffff" preserveAspectRatio="xMidYMid meet" height="446" width="1500" xmlns="http://www.w3.org/2000/svg" xmlns:xlink="http://www.w3.org/1999/xlink"><g id="tight-bounds" transform="matrix(1,0,0,1,0.2400000000000091,0.475546293247902)"><svg viewBox="0 0 395.52 117.04890741350418" height="117.04890741350418" width="395.52"><g><svg viewBox="0 0 627.2320882268691 185.62103211378866" height="117.04890741350418" width="395.52"><g><rect width="7.414003203733631" height="134.98490396118493" x="204.8896996730474" y="25.318064076301866" fill="#0c0a0f" opacity="1" stroke-width="0" stroke="transparent" fill-opacity="1" class="rect-yte-0" data-fill-palette-color="primary" rx="1%" id="yte-0" data-palette-color="#0c0a0f"></rect></g><g transform="matrix(1,0,0,1,231.71208822686907,25.653847419488883)"><svg viewBox="0 0 395.52 134.3133372748109" height="134.3133372748109" width="395.52"><g id="textblocktransform"><svg viewBox="0 0 395.52 134.3133372748109" height="134.3133372748109" width="395.52" id="textblock"><g><svg viewBox="0 0 395.52 82.21244578054541" height="82.21244578054541" width="395.52"><g transform="matrix(1,0,0,1,0,0)"><svg width="395.52" viewBox="1.88 -23.1 113.69 23.64" height="82.21244578054541" data-palette-color="#0c0a0f"><g class="wordmark-text-0" data-fill-palette-color="primary" id="text-0"><path d="M17.75-23.1Q19.97-23.1 21.61-22.13 23.24-21.17 24.12-19.36 25-17.55 25-15.14L25-15.14 25-3.32 27-3.32Q27.83-3.32 28.19-2.94 28.54-2.56 28.54-1.66L28.54-1.66Q28.54-0.76 28.19-0.38 27.83 0 27 0L27 0 19.09 0Q18.26 0 17.91-0.38 17.55-0.76 17.55-1.66L17.55-1.66Q17.55-2.56 17.91-2.94 18.26-3.32 19.09-3.32L19.09-3.32 21.34-3.32 21.34-14.77Q21.34-16.94 20.34-18.21 19.34-19.48 17.38-19.48L17.38-19.48Q15.31-19.48 13.51-18.29 11.72-17.09 10.64-14.99 9.57-12.89 9.57-10.3L9.57-10.3 9.57-3.32 11.82-3.32Q12.65-3.32 13-2.94 13.35-2.56 13.35-1.66L13.35-1.66Q13.35-0.76 13-0.38 12.65 0 11.82 0L11.82 0 3.91 0Q3.08 0 2.72-0.38 2.37-0.76 2.37-1.66L2.37-1.66Q2.37-2.56 2.72-2.94 3.08-3.32 3.91-3.32L3.91-3.32 5.91-3.32 5.91-19.24 3.42-19.24Q2.59-19.24 2.23-19.62 1.88-20 1.88-20.9L1.88-20.9Q1.88-21.8 2.23-22.18 2.59-22.56 3.42-22.56L3.42-22.56 7.79-22.56Q8.62-22.56 8.97-22.18 9.33-21.8 9.33-20.9L9.33-20.9 9.33-17.97Q10.94-20.46 13.1-21.78 15.26-23.1 17.75-23.1L17.75-23.1ZM45.19-23.1Q48.73-23.1 51.23-21.67 53.73-20.24 55.08-17.71 56.42-15.19 56.61-11.89L56.61-11.89Q56.61-11.06 56.26-10.72 55.91-10.38 55.08-10.38L55.08-10.38 37.4-10.38Q37.57-6.74 39.56-4.87 41.55-3 45.19-3L45.19-3Q47.43-3 49.63-3.58 51.83-4.15 53.49-5.1L53.49-5.1Q53.9-5.32 54.25-5.32L54.25-5.32Q55.1-5.32 55.64-4.03L55.64-4.03Q55.86-3.52 55.86-3.1L55.86-3.1Q55.86-2.12 54.78-1.59L54.78-1.59Q52.9-0.63 50.34-0.05 47.78 0.54 45.19 0.54L45.19 0.54Q41.5 0.54 38.89-0.88 36.28-2.29 34.91-4.96 33.54-7.62 33.54-11.28L33.54-11.28Q33.54-14.77 35.03-17.46 36.52-20.14 39.16-21.62 41.79-23.1 45.19-23.1L45.19-23.1ZM45.19-19.56Q42.19-19.56 40.22-18.03 38.25-16.5 37.64-13.79L37.64-13.79 52.56-13.79Q52.05-16.6 50.21-18.08 48.36-19.56 45.19-19.56L45.19-19.56ZM88.64-22.56Q89.47-22.56 89.83-22.18 90.18-21.8 90.18-20.9L90.18-20.9Q90.18-20 89.83-19.62 89.47-19.24 88.64-19.24L88.64-19.24 88.06-19.24 83.25-1.05Q83-0.17 82.53 0.18 82.05 0.54 81.12 0.54L81.12 0.54Q80.07 0.54 79.47 0.16 78.88-0.22 78.58-1.05L78.58-1.05 74.85-11.65 71.06-1.05Q70.77-0.22 70.15 0.16 69.53 0.54 68.48 0.54L68.48 0.54Q67.55 0.54 67.08 0.18 66.62-0.17 66.4-1.05L66.4-1.05 61.69-19.24 61.25-19.24Q60.42-19.24 60.07-19.62 59.71-20 59.71-20.9L59.71-20.9Q59.71-21.8 60.07-22.18 60.42-22.56 61.25-22.56L61.25-22.56 68.43-22.56Q69.26-22.56 69.61-22.18 69.97-21.8 69.97-20.9L69.97-20.9Q69.97-20 69.61-19.62 69.26-19.24 68.43-19.24L68.43-19.24 65.42-19.24 68.94-5.03 73.02-16.36Q73.19-16.87 73.65-17.19 74.12-17.5 74.87-17.5L74.87-17.5Q76.41-17.5 76.75-16.53L76.75-16.53 80.81-5.03 84.42-19.24 81.95-19.24Q81.12-19.24 80.77-19.62 80.41-20 80.41-20.9L80.41-20.9Q80.41-21.8 80.77-22.18 81.12-22.56 81.95-22.56L81.95-22.56 88.64-22.56ZM112.61-23.1Q113.62-23.1 114.03-22.73 114.45-22.36 114.45-21.51L114.45-21.51 114.45-16.87Q114.45-16.02 114.03-15.65 113.62-15.28 112.61-15.28L112.61-15.28Q111.78-15.28 111.44-15.92L111.44-15.92Q110.39-17.92 108.39-18.74 106.39-19.56 103.31-19.56L103.31-19.56Q100.94-19.56 99.61-18.71 98.28-17.87 98.28-16.36L98.28-16.36Q98.28-15.58 98.78-15.09 99.28-14.6 100.26-14.28L100.26-14.28Q101.07-14.01 102.13-13.87 103.19-13.72 104.88-13.55L104.88-13.55Q107.24-13.28 108.7-13.05 110.15-12.82 111.44-12.35L111.44-12.35Q113.4-11.65 114.48-10.3 115.57-8.96 115.57-6.76L115.57-6.76Q115.57-4.57 114.46-2.92 113.35-1.27 111.21-0.37 109.07 0.54 106.1 0.54L106.1 0.54Q103.46 0.54 101.46-0.2 99.46-0.93 97.97-2.42L97.97-2.42 97.97-1.05Q97.97-0.2 97.55 0.17 97.14 0.54 96.14 0.54L96.14 0.54Q95.13 0.54 94.72 0.17 94.3-0.2 94.3-1.05L94.3-1.05 94.3-6.91Q94.3-7.76 94.72-8.13 95.13-8.5 96.14-8.5L96.14-8.5Q96.65-8.5 96.94-8.26 97.23-8.03 97.45-7.5L97.45-7.5Q98.33-5.15 100.38-4.08 102.43-3 105.85-3L105.85-3Q108.68-3 110.2-4.03 111.71-5.05 111.71-6.76L111.71-6.76Q111.71-7.59 111.17-8.13 110.64-8.67 109.64-9.01L109.64-9.01Q108.78-9.28 107.67-9.46 106.56-9.64 104.85-9.81L104.85-9.81Q102.56-10.06 101.02-10.33 99.48-10.6 98.19-11.11L98.19-11.11Q96.4-11.82 95.41-13.07 94.43-14.33 94.43-16.36L94.43-16.36Q94.43-18.48 95.54-20.01 96.65-21.53 98.61-22.31 100.58-23.1 103.07-23.1L103.07-23.1Q105.44-23.1 107.4-22.39 109.37-21.68 110.78-20.41L110.78-20.41 110.78-21.51Q110.78-22.36 111.2-22.73 111.61-23.1 112.61-23.1L112.61-23.1Z" fill="#0c0a0f" data-fill-palette-color="primary"></path></g></svg></g></svg></g><g transform="matrix(1,0,0,1,0,101.62083113063345)"><svg viewBox="0 0 232.209792 32.69250614417745" height="32.69250614417745" width="232.209792"><g transform="matrix(1,0,0,1,0,0)"><svg width="232.209792" viewBox="2.45 -22.4 162.28 22.849999999999998" height="32.69250614417745" data-palette-color="#0c0a0f"><path d="M16.9-19.5L16.9-19.5 8.75-19.5Q5.95-19.5 5.95-16.65L5.95-16.65 5.95-4.7Q5.95-1.85 8.9-1.85L8.9-1.85 12.45-1.85Q15.4-1.85 15.4-5.4L15.4-5.4 15.4-8.15Q15.4-10.2 13.05-10.2L13.05-10.2 10.8-10.2Q8.9-10.2 8.9-11.15L8.9-11.15Q8.9-12.1 10.7-12.1L10.7-12.1 15.2-12.1Q18.9-12.1 18.9-8.95L18.9-8.95 18.9-3.35Q18.9 0 14.75 0L14.75 0 6.45 0Q2.45 0 2.45-3.55L2.45-3.55 2.45-17.8Q2.45-21.45 6.5-21.45L6.5-21.45 17-21.45Q18.9-21.45 18.9-20.5L18.9-20.5Q18.9-19.5 16.9-19.5ZM25.8 0.25L25.8 0.25Q24 0.25 24-2.15L24-2.15 24-20.1Q24-22.4 25.8-22.4L25.8-22.4Q27.55-22.4 27.55-20.1L27.55-20.1 27.55-2.15Q27.55 0.25 25.8 0.25ZM44.84-12.05L44.84-3.45Q44.84-1.6 43.87-0.8 42.89 0 41.05 0L41.05 0 36.89 0Q32.89 0 32.89-3.45L32.89-3.45 32.89-12.1Q32.89-13.7 33.84-14.65 34.8-15.6 36.8-15.6L36.8-15.6 41.05-15.6Q42.89-15.6 43.87-14.65 44.84-13.7 44.84-12.05L44.84-12.05ZM41.24-4.75L41.24-4.75 41.24-10.85Q41.24-13.8 39.14-13.8L39.14-13.8 38.49-13.8Q36.55-13.8 36.55-10.6L36.55-10.6 36.55-4.7Q36.55-1.7 38.55-1.7L38.55-1.7 39.3-1.7Q41.24-1.7 41.24-4.75ZM56.14-15.6L56.14-15.6 57.74-15.6Q59.59-15.6 60.57-14.7 61.54-13.8 61.54-12.2L61.54-12.2 61.54-3.45Q61.54-1.6 60.54-0.78 59.54 0.05 57.64 0.05L57.64 0.05 53.49 0.05Q49.54 0.05 49.54-3.5L49.54-3.5 49.54-19.65Q49.54-22.05 51.44-22.05L51.44-22.05Q53.19-22.05 53.19-19.45L53.19-19.45 53.24-17.7Q53.24-15.6 56.14-15.6ZM57.94-4.75L57.94-4.75 57.94-10.8Q57.94-13.85 55.84-13.85L55.84-13.85 55.19-13.85Q53.24-13.85 53.24-10.55L53.24-10.55 53.19-4.7Q53.19-1.65 55.24-1.65L55.24-1.65 55.94-1.65Q57.94-1.65 57.94-4.75ZM71.29-1.7L71.29-1.7 76.34-1.7Q78.24-1.7 78.24-0.8L78.24-0.8Q78.24 0 76.44 0L76.44 0 70.19 0Q66.29 0 66.29-3.65L66.29-3.65 66.29-14.7Q66.29-18.3 70.29-18.3L70.29-18.3 74.44-18.3Q76.29-18.3 77.27-17.53 78.24-16.75 78.24-15.3L78.24-15.3 78.24-9.55Q78.24-7.7 77.27-6.9 76.29-6.1 74.44-6.1L74.44-6.1 71.39-6.1Q69.89-6.1 69.89-3.85L69.89-3.85Q69.89-1.7 71.29-1.7ZM69.89-14.1L69.89-14.1 69.89-10.35Q69.89-7.85 72.34-7.85L72.34-7.85Q74.64-7.85 74.64-10.35L74.64-10.35 74.64-14.1Q74.64-16.6 72.34-16.6L72.34-16.6Q69.89-16.6 69.89-14.1ZM92.23-20.5L92.23-20.5Q92.23-21.45 93.98-21.45L93.98-21.45 106.74-21.45Q108.54-21.45 108.54-20.5L108.54-20.5Q108.54-19.5 106.69-19.5L106.69-19.5 104.94-19.5Q102.09-19.5 102.09-16.9L102.09-16.9 102.09-2.3Q102.09 0.3 100.34 0.3L100.34 0.3Q98.64 0.3 98.64-2.3L98.64-2.3 98.64-16.9Q98.64-19.5 95.79-19.5L95.79-19.5 94.14-19.5Q92.23-19.5 92.23-20.5ZM118.33-16.55L118.33-16.55 114.08-16.55Q112.18-16.55 112.18-17.45L112.18-17.45Q112.18-18.3 113.98-18.3L113.98-18.3 119.93-18.3Q123.63-18.3 123.63-14.5L123.63-14.5 123.63-3.6Q123.63 0 119.93 0L119.93 0 115.73 0Q111.68 0 111.68-2.95L111.68-2.95 111.68-9.45Q111.68-10.7 112.63-11.48 113.58-12.25 115.58-12.25L115.58-12.25 118.23-12.25Q120.03-12.25 120.03-14.05L120.03-14.05 120.03-14.55Q120.03-16.55 118.33-16.55ZM115.23-8.1L115.23-8.1 115.23-4.3Q115.23-1.7 117.68-1.7L117.68-1.7Q120.03-1.7 120.03-4.3L120.03-4.3 120.03-8.1Q120.03-10.55 117.68-10.55L117.68-10.55Q115.23-10.55 115.23-8.1ZM130.43 0.25L130.43 0.25Q128.63 0.25 128.63-2.15L128.63-2.15 128.63-20.1Q128.63-22.4 130.43-22.4L130.43-22.4Q132.18-22.4 132.18-20.1L132.18-20.1 132.18-2.15Q132.18 0.25 130.43 0.25ZM142.88-9.35L142.88-9.35 144.53-13.1Q145.78-15.75 146.93-15.75L146.93-15.75Q147.53-15.75 147.83-15.25 148.13-14.75 148.13-14.2L148.13-14.2Q148.13-13.65 147.88-12.65L147.88-12.65 145.93-8.9Q145.33-7.7 145.33-6.7L145.33-6.7Q145.28-6.15 145.45-5.68 145.63-5.2 145.93-4.7L145.93-4.7 147.68-1.55Q147.98-0.9 147.98-0.65L147.98-0.65Q147.98-0.2 147.58 0.13 147.18 0.45 146.58 0.45L146.58 0.45Q145.53 0.45 144.53-1.05L144.53-1.05 142.73-4.45Q141.93-5.45 141.58-5.45L141.58-5.45Q141.23-5.45 141.23-4.55L141.23-4.55 141.23-2.6Q141.23 0.25 139.48 0.25L139.48 0.25Q137.63 0.25 137.63-2.15L137.63-2.15 137.63-20.1Q137.63-21.2 138-21.78 138.38-22.35 139.43-22.35L139.43-22.35Q141.13-22.35 141.23-19.85L141.23-19.85 141.23-10.3Q141.23-8.45 142.03-8.45L142.03-8.45Q142.28-8.45 142.88-9.35ZM160.13-7.1L160.13-7.1 156.88-7.1Q152.73-7.1 152.73-9.95L152.73-9.95 152.73-12.05Q152.73-15.6 156.73-15.6L156.73-15.6 162.33-15.6Q164.23-15.6 164.23-14.8L164.23-14.8Q164.23-13.85 162.23-13.85L162.23-13.85 157.78-13.85Q156.33-13.85 156.33-12.2L156.33-12.2 156.33-10Q156.33-8.7 157.78-8.7L157.78-8.7 160.63-8.7Q164.43-8.7 164.73-5.6L164.73-5.6 164.73-3.6Q164.73 0 160.78 0L160.78 0 154.58 0Q152.73 0 152.73-0.95L152.73-0.95Q152.73-1.85 154.73-1.85L154.73-1.85 160.13-1.85Q161.58-1.85 161.58-3.45L161.58-3.45 161.58-5.7Q161.58-7.1 160.13-7.1Z" opacity="1" transform="matrix(1,0,0,1,0,0)" fill="#0c0a0f" class="slogan-text-1" data-fill-palette-color="secondary" id="text-1"></path></svg></g></svg></g></svg></g></svg></g><g><svg viewBox="0 0 185.48131432295938 185.62103211378866" height="185.62103211378866" width="185.48131432295938"><g><svg xmlns="http://www.w3.org/2000/svg" xmlns:xlink="http://www.w3.org/1999/xlink" version="1.1" x="0" y="0" viewBox="4.993857674056726 4.960907167730353 90.01515932031822 90.0829651758422" enable-background="new 0 0 100 100" xml:space="preserve" height="185.62103211378866" width="185.48131432295938" class="icon-icon-0" data-fill-palette-color="accent" id="icon-0"><path d="M94.9 47.2C94.4 38.6 91.3 30.1 86.1 23.2 80.5 15.6 72.6 10 63.7 7.1 55.2 4.3 45.9 4.3 37.3 6.8 22.8 11.1 11.2 22.7 6.9 37.1 2.4 51.9 6 68.3 16.3 79.9 26.9 91.9 43.6 97.4 59.3 94.1 78.1 90.1 92.8 74 94.8 54.8 95 52.2 95.1 49.7 94.9 47.2M77 73.7C76.9 75.2 76.4 79.3 72.6 82.6 63.3 89.1 51.4 91.2 40.5 88.5 31.3 86.2 23.1 80.6 17.7 72.8 12.1 64.8 9.6 54.9 10.8 45.3 11.9 35.8 16.6 27 23.7 20.6 30.9 14.2 40.3 10.5 49.9 10.4 51.6 10.4 53.3 10.5 55.1 10.7 51.9 14 50 18.3 50 23.1V45.3C50 47.9 52.1 50 54.7 50H72.3C74.8 50 77 52 77 54.6 77 57 75 59 72.5 59H54.5C52.1 59 50 61 50 63.5 50 65.9 52 68 54.5 68H71.9C74.7 68 77 70.3 77 73.1zM43.2 54.5H41V34.6C41 33.2 39.9 32 38.4 32H21C19.6 32 18.4 33.1 18.4 34.6V56.5C18.4 57.9 19.5 59.1 21 59.1H43.2C46.1 59 46.1 54.5 43.2 54.5M23 44.6H29.8C31 44.6 31 46.4 29.8 46.4H23C21.8 46.4 21.8 44.6 23 44.6M22.1 41C22.1 40.5 22.5 40.1 23 40.1H26.4C27.6 40.1 27.6 41.9 26.4 41.9H23C22.5 41.9 22.1 41.5 22.1 41M23 49.1H27.7C28.9 49.1 28.9 50.9 27.7 50.9H23C21.8 50.9 21.8 49.1 23 49.1M24.1 55.4H23C21.8 55.4 21.8 53.6 23 53.6H24.1C25.2 53.6 25.2 55.4 24.1 55.4M36.5 55.4H28.2C27 55.4 27 53.6 28.2 53.6H36.5C37.6 53.6 37.6 55.4 36.5 55.4M36.5 50.9H31.7C30.5 50.9 30.5 49.1 31.7 49.1H36.5C37.6 49.1 37.6 50.9 36.5 50.9M36.5 46.4H33.7C32.5 46.4 32.5 44.6 33.7 44.6H36.5C37.6 44.6 37.6 46.4 36.5 46.4M36.5 41.9H30.4C29.2 41.9 29.2 40.1 30.4 40.1H36.5C37.6 40.1 37.6 41.9 36.5 41.9M36.5 37.4H23C21.8 37.4 21.8 35.6 23 35.6H36.5C37.6 35.6 37.6 37.4 36.5 37.4" fill="#f98d67" data-fill-palette-color="accent"></path></svg></g></svg></g></svg></g><defs></defs></svg><rect width="395.52" height="117.04890741350418" fill="none" stroke="none" visibility="hidden"></rect></g></svg></g></svg>